  0
SECTION
  2
HEADER
  9
$ACADVER
  1
AC1015
  9
$ACADMAINTVER
 70
     6
  9
$DWGCODEPAGE
  3
ANSI_1252
  9
$INSBASE
 10
0.0
 20
0.0
 30
0.0
  9
$EXTMIN
 10
-37.75
 20
-37.75
 30
0.0
  9
$EXTMAX
 10
37.75
 20
37.75
 30
0.0
  9
$LIMMIN
 10
0.0
 20
0.0
  9
$LIMMAX
 10
420.0
 20
297.0
  9
$ORTHOMODE
 70
     0
  9
$REGENMODE
 70
     1
  9
$FILLMODE
 70
     1
  9
$QTEXTMODE
 70
     0
  9
$MIRRTEXT
 70
     1
  9
$LTSCALE
 40
1.0
  9
$ATTMODE
 70
     1
  9
$TEXTSIZE
 40
3.5
  9
$TRACEWID
 40
1.0
  9
$TEXTSTYLE
  7
Standard
  9
$CLAYER
  8
0
  9
$CELTYPE
  6
ByLayer
  9
$CECOLOR
 62
   256
  9
$CELTSCALE
 40
1.0
  9
$DISPSILH
 70
     0
  9
$DIMSCALE
 40
1.0
  9
$DIMASZ
 40
3.302
  9
$DIMEXO
 40
1.0
  9
$DIMDLI
 40
3.75
  9
$DIMRND
 40
0.0
  9
$DIMDLE
 40
0.0
  9
$DIMEXE
 40
1.0
  9
$DIMTP
 40
0.0
  9
$DIMTM
 40
0.0
  9
$DIMTXT
 40
3.5
  9
$DIMCEN
 40
2.5
  9
$DIMTSZ
 40
0.0
  9
$DIMTOL
 70
     0
  9
$DIMLIM
 70
     0
  9
$DIMTIH
 70
     1
  9
$DIMTOH
 70
     1
  9
$DIMSE1
 70
     0
  9
$DIMSE2
 70
     0
  9
$DIMTAD
 70
     1
  9
$DIMZIN
 70
     0
  9
$DIMBLK
  1

  9
$DIMASO
 70
     1
  9
$DIMSHO
 70
     1
  9
$DIMPOST
  1

  9
$DIMAPOST
  1

  9
$DIMALT
 70
     0
  9
$DIMALTD
 70
     3
  9
$DIMALTF
 40
0.0393700787
  9
$DIMLFAC
 40
1.0
  9
$DIMTOFL
 70
     1
  9
$DIMTVP
 40
0.0
  9
$DIMTIX
 70
     0
  9
$DIMSOXD
 70
     0
  9
$DIMSAH
 70
     0
  9
$DIMBLK1
  1

  9
$DIMBLK2
  1

  9
$DIMSTYLE
  2
ISO-25
  9
$DIMCLRD
 70
     0
  9
$DIMCLRE
 70
     0
  9
$DIMCLRT
 70
     0
  9
$DIMTFAC
 40
1.0
  9
$DIMGAP
 40
1.524
  9
$DIMJUST
 70
     0
  9
$DIMSD1
 70
     0
  9
$DIMSD2
 70
     0
  9
$DIMTOLJ
 70
     0
  9
$DIMTZIN
 70
     0
  9
$DIMALTZ
 70
     0
  9
$DIMALTTZ
 70
     0
  9
$DIMUPT
 70
     0
  9
$DIMDEC
 70
     2
  9
$DIMTDEC
 70
     2
  9
$DIMALTU
 70
     2
  9
$DIMALTTD
 70
     3
  9
$DIMTXSTY
  7
Standard
  9
$DIMAUNIT
 70
     0
  9
$DIMADEC
 70
     2
  9
$DIMALTRND
 40
0.0
  9
$DIMAZIN
 70
     0
  9
$DIMDSEP
 70
    44
  9
$DIMATFIT
 70
     3
  9
$DIMFRAC
 70
     0
  9
$DIMLDRBLK
  1

  9
$DIMLUNIT
 70
     2
  9
$DIMLWD
 70
    -2
  9
$DIMLWE
 70
    -2
  9
$DIMTMOVE
 70
     0
  9
$LUNITS
 70
     2
  9
$LUPREC
 70
     2
  9
$SKETCHINC
 40
1.0
  9
$FILLETRAD
 40
10.0
  9
$AUNITS
 70
     0
  9
$AUPREC
 70
     2
  9
$MENU
  1
.
  9
$ELEVATION
 40
0.0
  9
$PELEVATION
 40
0.0
  9
$THICKNESS
 40
0.0
  9
$LIMCHECK
 70
     0
  9
$CHAMFERA
 40
10.0
  9
$CHAMFERB
 40
10.0
  9
$CHAMFERC
 40
20.0
  9
$CHAMFERD
 40
0.0
  9
$SKPOLY
 70
     0
  9
$TDCREATE
 40
2456798.538006956
  9
$TDUCREATE
 40
2456798.829673623
  9
$TDUPDATE
 40
2456798.538034202
  9
$TDUUPDATE
 40
2456798.829700868
  9
$TDINDWG
 40
0.0000000116
  9
$TDUSRTIMER
 40
0.0000000116
  9
$USRTIMER
 70
     1
  9
$ANGBASE
 50
0.0
  9
$ANGDIR
 70
     0
  9
$PDMODE
 70
     0
  9
$PDSIZE
 40
-1.0
  9
$PLINEWID
 40
0.0
  9
$SPLFRAME
 70
     0
  9
$SPLINETYPE
 70
     6
  9
$SPLINESEGS
 70
     8
  9
$HANDSEED
  5
C1
  9
$SURFTAB1
 70
     6
  9
$SURFTAB2
 70
     6
  9
$SURFTYPE
 70
     6
  9
$SURFU
 70
     6
  9
$SURFV
 70
     6
  9
$UCSBASE
  2

  9
$UCSNAME
  2

  9
$UCSORG
 10
0.0
 20
0.0
 30
0.0
  9
$UCSXDIR
 10
1.0
 20
0.0
 30
0.0
  9
$UCSYDIR
 10
0.0
 20
1.0
 30
0.0
  9
$UCSORTHOREF
  2

  9
$UCSORTHOVIEW
 70
     0
  9
$UCSORGTOP
 10
0.0
 20
0.0
 30
0.0
  9
$UCSORGBOTTOM
 10
0.0
 20
0.0
 30
0.0
  9
$UCSORGLEFT
 10
0.0
 20
0.0
 30
0.0
  9
$UCSORGRIGHT
 10
0.0
 20
0.0
 30
0.0
  9
$UCSORGFRONT
 10
0.0
 20
0.0
 30
0.0
  9
$UCSORGBACK
 10
0.0
 20
0.0
 30
0.0
  9
$PUCSBASE
  2

  9
$PUCSNAME
  2

  9
$PUCSORG
 10
0.0
 20
0.0
 30
0.0
  9
$PUCSXDIR
 10
1.0
 20
0.0
 30
0.0
  9
$PUCSYDIR
 10
0.0
 20
1.0
 30
0.0
  9
$PUCSORTHOREF
  2

  9
$PUCSORTHOVIEW
 70
     0
  9
$PUCSORGTOP
 10
0.0
 20
0.0
 30
0.0
  9
$PUCSORGBOTTOM
 10
0.0
 20
0.0
 30
0.0
  9
$PUCSORGLEFT
 10
0.0
 20
0.0
 30
0.0
  9
$PUCSORGRIGHT
 10
0.0
 20
0.0
 30
0.0
  9
$PUCSORGFRONT
 10
0.0
 20
0.0
 30
0.0
  9
$PUCSORGBACK
 10
0.0
 20
0.0
 30
0.0
  9
$USERI1
 70
     0
  9
$USERI2
 70
     0
  9
$USERI3
 70
     0
  9
$USERI4
 70
     0
  9
$USERI5
 70
     0
  9
$USERR1
 40
0.0
  9
$USERR2
 40
0.0
  9
$USERR3
 40
0.0
  9
$USERR4
 40
0.0
  9
$USERR5
 40
0.0
  9
$WORLDVIEW
 70
     1
  9
$SHADEDGE
 70
     3
  9
$SHADEDIF
 70
    70
  9
$TILEMODE
 70
     1
  9
$MAXACTVP
 70
    64
  9
$PINSBASE
 10
0.0
 20
0.0
 30
0.0
  9
$PLIMCHECK
 70
     0
  9
$PEXTMIN
 10
1.0000000000E+20
 20
1.0000000000E+20
 30
1.0000000000E+20
  9
$PEXTMAX
 10
-1.0000000000E+20
 20
-1.0000000000E+20
 30
-1.0000000000E+20
  9
$PLIMMIN
 10
0.0
 20
0.0
  9
$PLIMMAX
 10
420.0
 20
297.0
  9
$UNITMODE
 70
     0
  9
$VISRETAIN
 70
     1
  9
$PLINEGEN
 70
     0
  9
$PSLTSCALE
 70
     1
  9
$TREEDEPTH
 70
  3020
  9
$CMLSTYLE
  2
Standard
  9
$CMLJUST
 70
     0
  9
$CMLSCALE
 40
20.0
  9
$PROXYGRAPHICS
 70
     1
  9
$MEASUREMENT
 70
     1
  9
$CELWEIGHT
370
    -1
  9
$ENDCAPS
280
     0
  9
$JOINSTYLE
280
     0
  9
$LWDISPLAY
290
     1
  9
$INSUNITS
 70
     4
  9
$HYPERLINKBASE
  1

  9
$STYLESHEET
  1

  9
$XEDIT
290
     1
  9
$CEPSNTYPE
380
     0
  9
$PSTYLEMODE
290
     1
  9
$FINGERPRINTGUID
  2
{8CC1CF5A-054C-4684-8F69-22C007698D5E}
  9
$VERSIONGUID
  2
{FAEB1C32-E019-11D5-929B-00C0DF256EC4}
  9
$EXTNAMES
290
     1
  9
$PSVPSCALE
 40
0.0
  9
$OLESTARTUP
290
     0
  0
ENDSEC
  0
SECTION
  2
CLASSES
  0
CLASS
  1
ACDBDICTIONARYWDFLT
  2
AcDbDictionaryWithDefault
  3
ObjectDBX Classes
 90
        0
280
     0
281
     0
  0
CLASS
  1
VISUALSTYLE
  2
AcDbVisualStyle
  3
ObjectDBX Classes
 90
     4095
280
     0
281
     0
  0
CLASS
  1
MATERIAL
  2
AcDbMaterial
  3
ObjectDBX Classes
 90
     1153
280
     0
281
     0
  0
CLASS
  1
ACDBPLACEHOLDER
  2
AcDbPlaceHolder
  3
ObjectDBX Classes
 90
        0
280
     0
281
     0
  0
CLASS
  1
LAYOUT
  2
AcDbLayout
  3
ObjectDBX Classes
 90
        0
280
     0
281
     0
  0
ENDSEC
  0
SECTION
  2
TABLES
  0
TABLE
  2
VPORT
  5
8
330
0
100
AcDbSymbolTable
 70
     1
  0
VPORT
  5
29
330
8
100
AcDbSymbolTableRecord
100
AcDbViewportTableRecord
  2
*Active
 70
     0
 10
0.0
 20
0.0
 11
1.0
 21
1.0
 12
0.0
 22
0.0
 13
0.0
 23
0.0
 14
10.0
 24
10.0
 15
10.0
 25
10.0
 16
0.0
 26
0.0
 36
1.0
 17
0.0
 27
0.0
 37
0.0
 40
77.01
 41
1.0
 42
50.0
 43
0.0
 44
0.0
 50
0.0
 51
0.0
 71
     0
 72
   100
 73
     1
 74
     3
 75
     0
 76
     0
 77
     0
 78
     0
281
     0
 65
     1
110
0.0
120
0.0
130
0.0
111
1.0
121
0.0
131
0.0
112
0.0
122
1.0
132
0.0
 79
     0
146
0.0
  0
ENDTAB
  0
TABLE
  2
LTYPE
  5
5
330
0
100
AcDbSymbolTable
 70
     6
  0
LTYPE
  5
14
330
5
100
AcDbSymbolTableRecord
100
AcDbLinetypeTableRecord
  2
ByBlock
 70
     0
  3

 72
    65
 73
     0
 40
0.0
  0
LTYPE
  5
15
330
5
100
AcDbSymbolTableRecord
100
AcDbLinetypeTableRecord
  2
ByLayer
 70
     0
  3

 72
    65
 73
     0
 40
0.0
  0
LTYPE
  5
16
330
5
100
AcDbSymbolTableRecord
100
AcDbLinetypeTableRecord
  2
Continuous
 70
     0
  3
Solid line
 72
    65
 73
     0
 40
0.0
  0
LTYPE
  5
3F
330
5
100
AcDbSymbolTableRecord
100
AcDbLinetypeTableRecord
  2
HIDDEN
 70
     0
  3
Hidden __ __ __ __ __ __ __ __ __ __ __ __ __ __
 72
    65
 73
     2
 40
1.905
 49
1.27
 74
     0
 49
-0.635
 74
     0
  0
LTYPE
  5
40
330
5
100
AcDbSymbolTableRecord
100
AcDbLinetypeTableRecord
  2
PHANTOM
 70
     0
  3
Phantom ______  __  __  ______  __  __  ______
 72
    65
 73
     6
 40
12.7
 49
6.35
 74
     0
 49
-1.27
 74
     0
 49
1.27
 74
     0
 49
-1.27
 74
     0
 49
1.27
 74
     0
 49
-1.27
 74
     0
  0
LTYPE
  5
41
330
5
100
AcDbSymbolTableRecord
100
AcDbLinetypeTableRecord
  2
CENTER
 70
     0
  3
Center ____ _ ____ _ ____ _ ____ _ ____ _ ____
 72
    65
 73
     4
 40
10.16
 49
6.35
 74
     0
 49
-1.27
 74
     0
 49
1.27
 74
     0
 49
-1.27
 74
     0
  0
LTYPE
  5
42
330
5
100
AcDbSymbolTableRecord
100
AcDbLinetypeTableRecord
  2
CENTERX2
 70
     0
  3
Center (2x) ________  __  ________  __  _____
 72
    65
 73
     4
 40
20.32
 49
12.7
 74
     0
 49
-2.54
 74
     0
 49
2.54
 74
     0
 49
-2.54
 74
     0
  0
LTYPE
  5
43
330
5
100
AcDbSymbolTableRecord
100
AcDbLinetypeTableRecord
  2
DOT2
 70
     0
  3
Dot (.5x) ........................................
 72
    65
 73
     2
 40
0.635
 49
0.0
 74
     0
 49
-0.635
 74
     0
  0
ENDTAB
  0
TABLE
  2
LAYER
  5
2
330
0
100
AcDbSymbolTable
 70
     1
  0
LAYER
  5
10
330
2
100
AcDbSymbolTableRecord
100
AcDbLayerTableRecord
  2
0
 70
     0
 62
     7
  6
Continuous
370
    -3
390
F
  0
ENDTAB
  0
TABLE
  2
STYLE
  5
3
330
0
100
AcDbSymbolTable
 70
     2
  0
STYLE
  5
11
330
3
100
AcDbSymbolTableRecord
100
AcDbTextStyleTableRecord
  2
Standard
 70
     0
 40
0.0
 41
1.0
 50
0.0
 71
     0
 42
3.5
  3
txt
  4

  0
STYLE
  5
BE
330
3
100
AcDbSymbolTableRecord
100
AcDbTextStyleTableRecord
  2
SLDTEXTSTYLE0
 70
     0
 40
0.0
 41
0.7
 50
0.0
 71
     0
 42
0.2
  3
TXT
  4

  0
ENDTAB
  0
TABLE
  2
VIEW
  5
6
330
0
100
AcDbSymbolTable
 70
     0
  0
ENDTAB
  0
TABLE
  2
UCS
  5
7
330
0
100
AcDbSymbolTable
 70
     0
  0
ENDTAB
  0
TABLE
  2
APPID
  5
9
330
0
100
AcDbSymbolTable
 70
     1
  0
APPID
  5
12
330
9
100
AcDbSymbolTableRecord
100
AcDbRegAppTableRecord
  2
ACAD
 70
     0
  0
ENDTAB
  0
TABLE
  2
DIMSTYLE
  5
A
330
0
100
AcDbSymbolTable
 70
     1
100
AcDbDimStyleTable
  0
DIMSTYLE
105
27
330
A
100
AcDbSymbolTableRecord
100
AcDbDimStyleTableRecord
  2
ISO-25
 70
     0
 41
2.5
 42
0.625
 43
3.75
 44
1.25
 73
     0
 74
     0
 77
     1
 78
     8
140
2.5
141
2.5
143
0.0393700787
147
0.625
171
     3
172
     1
178
     0
271
     2
272
     2
274
     3
278
    44
283
     0
284
     8
340
11
  0
ENDTAB
  0
TABLE
  2
BLOCK_RECORD
  5
1
330
0
100
AcDbSymbolTable
 70
     1
  0
BLOCK_RECORD
  5
1F
330
1
100
AcDbSymbolTableRecord
100
AcDbBlockTableRecord
  2
*Model_Space
340
22
  0
BLOCK_RECORD
  5
1B
330
1
100
AcDbSymbolTableRecord
100
AcDbBlockTableRecord
  2
*Paper_Space
340
1E
  0
BLOCK_RECORD
  5
23
330
1
100
AcDbSymbolTableRecord
100
AcDbBlockTableRecord
  2
*Paper_Space0
340
26
  0
ENDTAB
  0
ENDSEC
  0
SECTION
  2
BLOCKS
  0
BLOCK
  5
20
330
1F
100
AcDbEntity
  8
0
100
AcDbBlockBegin
  2
*Model_Space
 70
     0
 10
0.0
 20
0.0
 30
0.0
  3
*Model_Space
  1

  0
ENDBLK
  5
21
330
1F
100
AcDbEntity
  8
0
100
AcDbBlockEnd
  0
BLOCK
  5
1C
330
1B
100
AcDbEntity
 67
     1
  8
0
100
AcDbBlockBegin
  2
*Paper_Space
 70
     0
 10
0.0
 20
0.0
 30
0.0
  3
*Paper_Space
  1

  0
ENDBLK
  5
1D
330
1B
100
AcDbEntity
 67
     1
  8
0
100
AcDbBlockEnd
  0
BLOCK
  5
24
330
23
100
AcDbEntity
  8
0
100
AcDbBlockBegin
  2
*Paper_Space0
 70
     0
 10
0.0
 20
0.0
 30
0.0
  3
*Paper_Space0
  1

  0
ENDBLK
  5
25
330
23
100
AcDbEntity
  8
0
100
AcDbBlockEnd
  0
ENDSEC
  0
SECTION
  2
ENTITIES
  0
SPLINE
  5
44
330
1F
100
AcDbEntity
  8
0
  6
Continuous
 62
     7
370
    15
100
AcDbSpline
210
0.0
220
0.0
230
1.0
 70
     8
 71
     3
 72
    15
 73
    11
 74
     0
 42
0.00000001
 43
0.00000001
 12
1.0
 22
0.0
 32
0.0
 13
1.0
 23
0.0
 33
0.0
 40
0.0661917931950125
 40
0.0661917931950125
 40
0.0661917931950125
 40
0.0661917931950125
 40
0.0736451586675395
 40
0.1192538475604295
 40
0.1788807713406443
 40
0.238507695120859
 40
0.3577615426812885
 40
0.477015390241718
 40
0.5962692378021475
 40
0.6311256067233428
 40
0.6311256067233428
 40
0.6311256067233428
 40
0.6311256067233428
 10
-31.90308909098179
 20
-27.28404869857792
 30
0.0
 10
-31.80120467002357
 20
-27.18029010737623
 30
0.0
 10
-31.08087064620468
 20
-26.44567009864723
 30
0.0
 10
-29.6318496437443
 20
-24.95138451595373
 30
0.0
 10
-27.74077604580136
 20
-22.9389416360888
 30
0.0
 10
-25.35884456343734
 20
-20.2639717821133
 30
0.0
 10
-23.02037409692603
 20
-17.28542614134885
 30
0.0
 10
-21.15173267608475
 20
-13.99294326581674
 30
0.0
 10
-20.46830944334741
 20
-11.45643789467194
 30
0.0
 10
-20.38667800361715
 20
-10.02043777162374
 30
0.0
 10
-20.38296452517475
 20
-9.695669832854223
 30
0.0
  0
SPLINE
  5
46
330
1F
100
AcDbEntity
  8
0
  6
Continuous
 62
     7
370
    15
100
AcDbSpline
210
0.0
220
0.0
230
1.0
 70
     8
 71
     3
 72
    14
 73
    10
 74
     0
 42
0.00000001
 43
0.00000001
 12
1.0
 22
0.0
 32
0.0
 13
1.0
 23
0.0
 33
0.0
 40
0.4228397895265726
 40
0.4228397895265726
 40
0.4228397895265726
 40
0.4228397895265726
 40
0.5
 40
0.625
 40
0.6875
 40
0.75
 40
0.8125
 40
0.875
 40
0.9270325297105608
 40
0.9270325297105608
 40
0.9270325297105608
 40
0.9270325297105608
 10
-13.60663316868632
 20
-21.43262003283392
 30
0.0
 10
-14.25242539803281
 20
-21.63313328624454
 30
0.0
 10
-15.90878041614328
 20
-22.26746820439634
 30
0.0
 10
-17.99386121434233
 20
-23.51772398528733
 30
0.0
 10
-20.03827109535888
 20
-25.09058800125187
 30
0.0
 10
-21.66484020587228
 20
-26.48687649362332
 30
0.0
 10
-23.43782026417132
 20
-28.12395322158941
 30
0.0
 10
-25.2971430693082
 20
-29.919644473493
 30
0.0
 10
-26.64335871442876
 20
-31.24983679974862
 30
0.0
 10
-27.28579598562617
 20
-31.88801389279996
 30
0.0
  0
SPLINE
  5
48
330
1F
100
AcDbEntity
  8
0
  6
Continuous
 62
     7
370
    15
100
AcDbSpline
210
0.0
220
0.0
230
1.0
 70
     8
 71
     3
 72
    14
 73
    10
 74
     0
 42
0.00000001
 43
0.00000001
 12
1.0
 22
0.0
 32
0.0
 13
1.0
 23
0.0
 33
0.0
 40
0.4228397895265726
 40
0.4228397895265726
 40
0.4228397895265726
 40
0.4228397895265726
 40
0.5
 40
0.625
 40
0.6875
 40
0.75
 40
0.8125
 40
0.875
 40
0.9270324149413267
 40
0.9270324149413267
 40
0.9270324149413267
 40
0.9270324149413267
 10
13.60663316868633
 20
21.43262003283396
 30
0.0
 10
14.25242539803282
 20
21.63313328624459
 30
0.0
 10
15.9087804161433
 20
22.2674682043964
 30
0.0
 10
17.99386121434235
 20
23.51772398528736
 30
0.0
 10
20.0382710953589
 20
25.09058800125191
 30
0.0
 10
21.6648402058723
 20
26.48687649362336
 30
0.0
 10
23.43782026417134
 20
28.12395322158945
 30
0.0
 10
25.29714186391926
 20
29.91964330935608
 30
0.0
 10
26.64335601643318
 20
31.24983413386595
 30
0.0
 10
27.28579173451484
 20
31.88800966987899
 30
0.0
  0
SPLINE
  5
4A
330
1F
100
AcDbEntity
  8
0
  6
Continuous
 62
     7
370
    15
100
AcDbSpline
210
0.0
220
0.0
230
1.0
 70
     8
 71
     3
 72
    15
 73
    11
 74
     0
 42
0.00000001
 43
0.00000001
 12
1.0
 22
0.0
 32
0.0
 13
1.0
 23
0.0
 33
0.0
 40
0.0661918951042926
 40
0.0661918951042926
 40
0.0661918951042926
 40
0.0661918951042926
 40
0.0736452605768398
 40
0.1192538475604291
 40
0.1788807713406437
 40
0.2385076951208583
 40
0.3577615426812875
 40
0.4770153902417166
 40
0.5962692378021457
 40
0.6311256067233438
 40
0.6311256067233438
 40
0.6311256067233438
 40
0.6311256067233438
 10
31.90308491180919
 20
27.28404444252912
 30
0.0
 10
31.80120051142697
 20
27.1802858682799
 30
0.0
 10
31.08086801661062
 20
26.44566738959604
 30
0.0
 10
29.63184847478265
 20
24.95138327196801
 30
0.0
 10
27.74077604580141
 20
22.93894163608878
 30
0.0
 10
25.35884456343743
 20
20.26397178211323
 30
0.0
 10
23.02037409692615
 20
17.28542614134869
 30
0.0
 10
21.15173267608493
 20
13.9929432658165
 30
0.0
 10
20.46830944334763
 20
11.45643789467166
 30
0.0
 10
20.38667800361738
 20
10.02043777162344
 30
0.0
 10
20.38296452517498
 20
9.695669832853897
 30
0.0
  0
SPLINE
  5
60
330
1F
100
AcDbEntity
  8
0
  6
Continuous
 62
     7
370
    15
100
AcDbSpline
210
0.0
220
0.0
230
1.0
 70
     8
 71
     3
 72
    15
 73
    11
 74
     0
 42
0.00000001
 43
0.00000001
 12
1.0
 22
0.0
 32
0.0
 13
1.0
 23
0.0
 33
0.0
 40
0.0661918951042932
 40
0.0661918951042932
 40
0.0661918951042932
 40
0.0661918951042932
 40
0.0736452605768401
 40
0.1192538475604292
 40
0.1788807713406438
 40
0.2385076951208583
 40
0.3577615426812875
 40
0.4770153902417167
 40
0.5962692378021459
 40
0.6311256067233426
 40
0.6311256067233426
 40
0.6311256067233426
 40
0.6311256067233426
 10
-31.90308491180913
 20
27.2840444425291
 30
0.0
 10
-31.8012005114269
 20
27.18028586827988
 30
0.0
 10
-31.08086801661057
 20
26.44566738959604
 30
0.0
 10
-29.63184847478261
 20
24.95138327196801
 30
0.0
 10
-27.74077604580138
 20
22.93894163608878
 30
0.0
 10
-25.35884456343736
 20
20.26397178211324
 30
0.0
 10
-23.02037409692612
 20
17.2854261413487
 30
0.0
 10
-21.1517326760849
 20
13.9929432658165
 30
0.0
 10
-20.46830944334761
 20
11.45643789467167
 30
0.0
 10
-20.38667800361736
 20
10.02043777162348
 30
0.0
 10
-20.38296452517495
 20
9.695669832853946
 30
0.0
  0
SPLINE
  5
62
330
1F
100
AcDbEntity
  8
0
  6
Continuous
 62
     7
370
    15
100
AcDbSpline
210
0.0
220
0.0
230
1.0
 70
     8
 71
     3
 72
    14
 73
    10
 74
     0
 42
0.00000001
 43
0.00000001
 12
1.0
 22
0.0
 32
0.0
 13
1.0
 23
0.0
 33
0.0
 40
0.0729675850586733
 40
0.0729675850586733
 40
0.0729675850586733
 40
0.0729675850586733
 40
0.125
 40
0.1875
 40
0.25
 40
0.3125
 40
0.375
 40
0.5
 40
0.5771602104934459
 40
0.5771602104934459
 40
0.5771602104934459
 40
0.5771602104934459
 10
-27.28579173451483
 20
31.88800966987898
 30
0.0
 10
-26.64335601643317
 20
31.24983413386594
 30
0.0
 10
-25.29714186391927
 20
29.91964330935605
 30
0.0
 10
-23.43782026417134
 20
28.12395322158943
 30
0.0
 10
-21.66484020587228
 20
26.48687649362332
 30
0.0
 10
-20.03827109535889
 20
25.09058800125188
 30
0.0
 10
-17.99386121434232
 20
23.51772398528735
 30
0.0
 10
-15.90878041598556
 20
22.26746820430181
 30
0.0
 10
-14.25242539770476
 20
21.63313328611894
 30
0.0
 10
-13.60663316818367
 20
21.43262003267789
 30
0.0
  0
SPLINE
  5
64
330
1F
100
AcDbEntity
  8
0
  6
Continuous
 62
     7
370
    15
100
AcDbSpline
210
0.0
220
0.0
230
1.0
 70
     8
 71
     3
 72
    15
 73
    11
 74
     0
 42
0.00000001
 43
0.00000001
 12
1.0
 22
0.0
 32
0.0
 13
1.0
 23
0.0
 33
0.0
 40
0.066191895104293
 40
0.066191895104293
 40
0.066191895104293
 40
0.066191895104293
 40
0.0736452605768401
 40
0.1192538475604291
 40
0.1788807713406437
 40
0.2385076951208583
 40
0.3577615426812874
 40
0.4770153902417165
 40
0.5962692378021457
 40
0.6311256067233442
 40
0.6311256067233442
 40
0.6311256067233442
 40
0.6311256067233442
 10
31.90308491180917
 20
-27.28404444252906
 30
0.0
 10
31.80120051142695
 20
-27.18028586827984
 30
0.0
 10
31.08086801661061
 20
-26.44566738959599
 30
0.0
 10
29.63184847478264
 20
-24.95138327196795
 30
0.0
 10
27.74077604580142
 20
-22.93894163608873
 30
0.0
 10
25.35884456343743
 20
-20.2639717821132
 30
0.0
 10
23.02037409692617
 20
-17.28542614134864
 30
0.0
 10
21.15173267608494
 20
-13.99294326581645
 30
0.0
 10
20.46830944334764
 20
-11.45643789467161
 30
0.0
 10
20.38667800361739
 20
-10.02043777162339
 30
0.0
 10
20.38296452517498
 20
-9.695669832853845
 30
0.0
  0
SPLINE
  5
66
330
1F
100
AcDbEntity
  8
0
  6
Continuous
 62
     7
370
    15
100
AcDbSpline
210
0.0
220
0.0
230
1.0
 70
     8
 71
     3
 72
    14
 73
    10
 74
     0
 42
0.00000001
 43
0.00000001
 12
1.0
 22
0.0
 32
0.0
 13
1.0
 23
0.0
 33
0.0
 40
0.0729675850586665
 40
0.0729675850586665
 40
0.0729675850586665
 40
0.0729675850586665
 40
0.125
 40
0.1875
 40
0.25
 40
0.3125
 40
0.375
 40
0.5
 40
0.5771602104934465
 40
0.5771602104934465
 40
0.5771602104934465
 40
0.5771602104934465
 10
27.28579173451511
 20
-31.88800966987916
 30
0.0
 10
26.64335601643337
 20
-31.24983413386604
 30
0.0
 10
25.29714186391937
 20
-29.91964330935608
 30
0.0
 10
23.43782026417136
 20
-28.12395322158938
 30
0.0
 10
21.66484020587232
 20
-26.48687649362329
 30
0.0
 10
20.03827109535892
 20
-25.09058800125185
 30
0.0
 10
17.99386121434236
 20
-23.5177239852873
 30
0.0
 10
15.9087804159856
 20
-22.26746820430176
 30
0.0
 10
14.25242539770479
 20
-21.6331332861189
 30
0.0
 10
13.60663316818369
 20
-21.43262003267784
 30
0.0
  0
SPLINE
  5
6B
330
1F
100
AcDbEntity
  8
0
  6
Continuous
 62
     7
370
    15
100
AcDbSpline
210
0.0
220
0.0
230
1.0
 70
     8
 71
     3
 72
     9
 73
     5
 74
     0
 42
0.00000001
 43
0.00000001
 12
1.0
 22
0.0
 32
0.0
 13
1.0
 23
0.0
 33
0.0
 40
0.0
 40
0.0
 40
0.0
 40
0.0
 40
0.477015390241718
 40
0.954030780483436
 40
0.954030780483436
 40
0.954030780483436
 40
0.954030780483436
 10
-36.21231060122938
 20
-28.7876893987706
 30
0.0
 10
-28.83875086314393
 20
-21.41412966068515
 30
0.0
 10
-20.64905212416009
 20
-12.58123706406021
 30
0.0
 10
-22.49773008670486
 20
-6.284743066564254
 30
0.0
 10
-25.16254705014769
 20
-1.447581927608646
 30
0.0
  0
SPLINE
  5
6D
330
1F
100
AcDbEntity
  8
0
  6
Continuous
 62
     7
370
    15
100
AcDbSpline
210
0.0
220
0.0
230
1.0
 70
     8
 71
     3
 72
     9
 73
     5
 74
     0
 42
0.00000001
 43
0.00000001
 12
1.0
 22
0.0
 32
0.0
 13
1.0
 23
0.0
 33
0.0
 40
0.0
 40
0.0
 40
0.0
 40
0.0
 40
0.4770153902417167
 40
0.9540307804834334
 40
0.9540307804834334
 40
0.9540307804834334
 40
0.9540307804834334
 10
-36.21231060122935
 20
28.78768939877066
 30
0.0
 10
-28.83875086314392
 20
21.41412966068523
 30
0.0
 10
-20.6490521241603
 20
12.58123706405992
 30
0.0
 10
-22.49773008670511
 20
6.284743066564
 30
0.0
 10
-25.16254705014771
 20
1.447581927608702
 30
0.0
  0
SPLINE
  5
73
330
1F
100
AcDbEntity
  8
0
  6
Continuous
 62
     7
370
    15
100
AcDbSpline
210
0.0
220
0.0
230
1.0
 70
     8
 71
     3
 72
     8
 73
     4
 74
     0
 42
0.00000001
 43
0.00000001
 12
1.0
 22
0.0
 32
0.0
 13
1.0
 23
0.0
 33
0.0
 40
0.0
 40
0.0
 40
0.0
 40
0.0
 40
1.0
 40
1.0
 40
1.0
 40
1.0
 10
-28.78768939877062
 20
36.2123106012294
 30
0.0
 10
-14.44588108292569
 20
21.87050228538448
 30
0.0
 10
-15.06508812135212
 20
22.49999999999997
 30
0.0
 10
0.0000000000000171
 20
22.49999999999996
 30
0.0
  0
SPLINE
  5
74
330
1F
100
AcDbEntity
  8
0
  6
Continuous
 62
     7
370
    15
100
AcDbSpline
210
0.0
220
0.0
230
1.0
 70
     8
 71
     3
 72
     8
 73
     4
 74
     0
 42
0.00000001
 43
0.00000001
 12
1.0
 22
0.0
 32
0.0
 13
1.0
 23
0.0
 33
0.0
 40
0.0
 40
0.0
 40
0.0
 40
0.0
 40
1.0
 40
1.0
 40
1.0
 40
1.0
 10
28.78768939877062
 20
36.21231060122942
 30
0.0
 10
14.44588108292571
 20
21.87050228538451
 30
0.0
 10
15.06508812135215
 20
22.49999999999997
 30
0.0
 10
-0.0000000000000032
 20
22.49999999999996
 30
0.0
  0
SPLINE
  5
7A
330
1F
100
AcDbEntity
  8
0
  6
Continuous
 62
     7
370
    15
100
AcDbSpline
210
0.0
220
0.0
230
1.0
 70
     8
 71
     3
 72
     9
 73
     5
 74
     0
 42
0.00000001
 43
0.00000001
 12
1.0
 22
0.0
 32
0.0
 13
1.0
 23
0.0
 33
0.0
 40
0.0
 40
0.0
 40
0.0
 40
0.0
 40
0.4770153902417166
 40
0.9540307804834331
 40
0.9540307804834331
 40
0.9540307804834331
 40
0.9540307804834331
 10
36.2123106012294
 20
28.78768939877064
 30
0.0
 10
28.83875086314396
 20
21.41412966068521
 30
0.0
 10
20.64905212416035
 20
12.58123706405993
 30
0.0
 10
22.49773008670512
 20
6.28474306656397
 30
0.0
 10
25.16254705014773
 20
1.447581927608698
 30
0.0
  0
SPLINE
  5
7C
330
1F
100
AcDbEntity
  8
0
  6
Continuous
 62
     7
370
    15
100
AcDbSpline
210
0.0
220
0.0
230
1.0
 70
     8
 71
     3
 72
     9
 73
     5
 74
     0
 42
0.00000001
 43
0.00000001
 12
1.0
 22
0.0
 32
0.0
 13
1.0
 23
0.0
 33
0.0
 40
0.0
 40
0.0
 40
0.0
 40
0.0
 40
0.4770153902417165
 40
0.954030780483433
 40
0.954030780483433
 40
0.954030780483433
 40
0.954030780483433
 10
36.21231060122939
 20
-28.7876893987706
 30
0.0
 10
28.83875086314396
 20
-21.41412966068517
 30
0.0
 10
20.64905212416038
 20
-12.58123706405988
 30
0.0
 10
22.49773008670511
 20
-6.284743066563932
 30
0.0
 10
25.16254705014773
 20
-1.447581927608643
 30
0.0
  0
SPLINE
  5
81
330
1F
100
AcDbEntity
  8
0
  6
Continuous
 62
     7
370
    15
100
AcDbSpline
210
0.0
220
0.0
230
1.0
 70
     8
 71
     3
 72
     8
 73
     4
 74
     0
 42
0.00000001
 43
0.00000001
 12
1.0
 22
0.0
 32
0.0
 13
1.0
 23
0.0
 33
0.0
 40
0.0
 40
0.0
 40
0.0
 40
0.0
 40
1.0
 40
1.0
 40
1.0
 40
1.0
 10
28.78768939877064
 20
-36.21231060122935
 30
0.0
 10
14.44588108292573
 20
-21.87050228538444
 30
0.0
 10
15.06508812135215
 20
-22.49999999999991
 30
0.0
 10
-0.0000000000000011
 20
-22.4999999999999
 30
0.0
  0
SPLINE
  5
82
330
1F
100
AcDbEntity
  8
0
  6
Continuous
 62
     7
370
    15
100
AcDbSpline
210
0.0
220
0.0
230
1.0
 70
     8
 71
     3
 72
     8
 73
     4
 74
     0
 42
0.00000001
 43
0.00000001
 12
1.0
 22
0.0
 32
0.0
 13
1.0
 23
0.0
 33
0.0
 40
0.0
 40
0.0
 40
0.0
 40
0.0
 40
1.0
 40
1.0
 40
1.0
 40
1.0
 10
-28.7876893987706
 20
-36.21231060122938
 30
0.0
 10
-14.44588108292569
 20
-21.87050228538447
 30
0.0
 10
-15.06508812135213
 20
-22.49999999999991
 30
0.0
 10
0.0000000000000193
 20
-22.4999999999999
 30
0.0
  0
CIRCLE
  5
84
330
1F
100
AcDbEntity
  8
0
  6
Continuous
 62
     7
370
    15
100
AcDbCircle
 10
-15.1554445662
 20
8.75
 30
0.0
 40
1.000000000000004
  0
CIRCLE
  5
85
330
1F
100
AcDbEntity
  8
0
  6
Continuous
 62
     7
370
    15
100
AcDbCircle
 10
15.1554445662
 20
8.75
 30
0.0
 40
0.9999999999999982
  0
CIRCLE
  5
86
330
1F
100
AcDbEntity
  8
0
  6
Continuous
 62
     7
370
    15
100
AcDbCircle
 10
-15.1554445662
 20
-8.75
 30
0.0
 40
1.000000000000004
  0
CIRCLE
  5
87
330
1F
100
AcDbEntity
  8
0
  6
Continuous
 62
     7
370
    15
100
AcDbCircle
 10
15.1554445662
 20
-8.75
 30
0.0
 40
1.000000000000002
  0
CIRCLE
  5
88
330
1F
100
AcDbEntity
  8
0
  6
Continuous
 62
     7
370
    15
100
AcDbCircle
 10
-22.5
 20
0.0
 30
0.0
 40
0.9999999999999927
  0
CIRCLE
  5
89
330
1F
100
AcDbEntity
  8
0
  6
Continuous
 62
     7
370
    15
100
AcDbCircle
 10
22.5
 20
0.0
 30
0.0
 40
1.000000000000006
  0
LINE
  5
8C
330
1F
100
AcDbEntity
  8
0
  6
Continuous
 62
     7
370
    15
100
AcDbLine
 10
-20.3829645256
 20
-9.6956698328
 30
0.0
 11
-13.6066331693
 21
-21.4326200308
 31
0.0
  0
LINE
  5
8D
330
1F
100
AcDbEntity
  8
0
  6
Continuous
 62
     7
370
    15
100
AcDbLine
 10
20.3829645256
 20
9.6956698328
 30
0.0
 11
13.6066331693
 21
21.4326200308
 31
0.0
  0
LINE
  5
8E
330
1F
100
AcDbEntity
  8
0
  6
Continuous
 62
     7
370
    15
100
AcDbLine
 10
-14.1554445662
 20
-10.4820508076
 30
0.0
 11
-10.9696551146
 21
-16.0
 31
0.0
  0
LINE
  5
8F
330
1F
100
AcDbEntity
  8
0
  6
Continuous
 62
     7
370
    15
100
AcDbLine
 10
-8.3715789032
 20
-17.5
 30
0.0
 11
8.3715789032
 21
-17.5
 31
0.0
  0
LINE
  5
90
330
1F
100
AcDbEntity
  8
0
  6
Continuous
 62
     7
370
    15
100
AcDbLine
 10
10.9696551146
 20
-16.0
 30
0.0
 11
14.1554445662
 21
-10.4820508076
 31
0.0
  0
LINE
  5
91
330
1F
100
AcDbEntity
  8
0
  6
Continuous
 62
     7
370
    15
100
AcDbLine
 10
16.1554445662
 20
-7.0179491924
 30
0.0
 11
19.3412340179
 21
-1.5
 31
0.0
  0
LINE
  5
92
330
1F
100
AcDbEntity
  8
0
  6
Continuous
 62
     7
370
    15
100
AcDbLine
 10
16.1554445662
 20
7.0179491924
 30
0.0
 11
19.3412340179
 21
1.5
 31
0.0
  0
LINE
  5
93
330
1F
100
AcDbEntity
  8
0
  6
Continuous
 62
     7
370
    15
100
AcDbLine
 10
10.9696551146
 20
16.0
 30
0.0
 11
14.1554445662
 21
10.4820508076
 31
0.0
  0
LINE
  5
94
330
1F
100
AcDbEntity
  8
0
  6
Continuous
 62
     7
370
    15
100
AcDbLine
 10
8.3715789032
 20
17.5
 30
0.0
 11
-8.3715789032
 21
17.5
 31
0.0
  0
LINE
  5
95
330
1F
100
AcDbEntity
  8
0
  6
Continuous
 62
     7
370
    15
100
AcDbLine
 10
-14.1554445662
 20
10.4820508076
 30
0.0
 11
-10.9696551146
 21
16.0
 31
0.0
  0
LINE
  5
96
330
1F
100
AcDbEntity
  8
0
  6
Continuous
 62
     7
370
    15
100
AcDbLine
 10
-19.3412340179
 20
1.5
 30
0.0
 11
-16.1554445662
 21
7.0179491924
 31
0.0
  0
LINE
  5
97
330
1F
100
AcDbEntity
  8
0
  6
Continuous
 62
     7
370
    15
100
AcDbLine
 10
-16.1554445662
 20
-7.0179491924
 30
0.0
 11
-19.3412340179
 21
-1.5
 31
0.0
  0
LINE
  5
98
330
1F
100
AcDbEntity
  8
0
  6
Continuous
 62
     7
370
    15
100
AcDbLine
 10
-13.6066331681
 20
21.4326200328
 30
0.0
 11
-20.3829645256
 21
9.6956698328
 31
0.0
  0
LINE
  5
99
330
1F
100
AcDbEntity
  8
0
  6
Continuous
 62
     7
370
    15
100
AcDbLine
 10
13.6066331681
 20
-21.4326200328
 30
0.0
 11
20.3829645256
 21
-9.6956698328
 31
0.0
  0
LINE
  5
9A
330
1F
100
AcDbEntity
  8
0
  6
Continuous
 62
     7
370
    15
100
AcDbLine
 10
-35.1242954043
 20
-34.4171886231
 30
0.0
 11
-36.5489897654
 21
-35.8418829842
 31
0.0
  0
LINE
  5
9B
330
1F
100
AcDbEntity
  8
0
  6
Continuous
 62
     7
370
    15
100
AcDbLine
 10
-35.1242954043
 20
34.41717856
 30
0.0
 11
-36.5489924102
 21
35.8418797797
 31
0.0
  0
LINE
  5
9C
330
1F
100
AcDbEntity
  8
0
  6
Continuous
 62
     7
370
    15
100
AcDbLine
 10
-35.8418829842
 20
36.5489897654
 30
0.0
 11
-34.417184375
 21
35.1242911562
 31
0.0
  0
LINE
  5
9D
330
1F
100
AcDbEntity
  8
0
  6
Continuous
 62
     7
370
    15
100
AcDbLine
 10
34.417184375
 20
35.1242911562
 30
0.0
 11
35.8418829842
 21
36.5489897654
 31
0.0
  0
LINE
  5
9E
330
1F
100
AcDbEntity
  8
0
  6
Continuous
 62
     7
370
    15
100
AcDbLine
 10
36.5489897654
 20
35.8418829842
 30
0.0
 11
35.1242911562
 21
34.417184375
 31
0.0
  0
LINE
  5
9F
330
1F
100
AcDbEntity
  8
0
  6
Continuous
 62
     7
370
    15
100
AcDbLine
 10
36.5489897654
 20
-35.8418829842
 30
0.0
 11
35.1242911562
 21
-34.417184375
 31
0.0
  0
LINE
  5
A0
330
1F
100
AcDbEntity
  8
0
  6
Continuous
 62
     7
370
    15
100
AcDbLine
 10
34.417184375
 20
-35.1242911562
 30
0.0
 11
35.8418829842
 21
-36.5489897654
 31
0.0
  0
LINE
  5
A1
330
1F
100
AcDbEntity
  8
0
  6
Continuous
 62
     7
370
    15
100
AcDbLine
 10
-35.8418829842
 20
-36.5489897654
 30
0.0
 11
-34.4171886231
 21
-35.1242954043
 31
0.0
  0
ARC
  5
A2
330
1F
100
AcDbEntity
  8
0
  6
Continuous
 62
     7
370
    15
100
AcDbCircle
 10
-32.5000042481
 20
-32.5000042482
 30
0.0
 40
5.250000000000061
100
AcDbArc
 50
6.694164969
 51
83.4714593962
  0
ARC
  5
A3
330
1F
100
AcDbEntity
  8
0
  6
Continuous
 62
     7
370
    15
100
AcDbCircle
 10
32.5
 20
32.5
 30
0.0
 40
5.250000000001495
100
AcDbArc
 50
186.6941646917
 51
263.4714601538
  0
ARC
  5
A4
330
1F
100
AcDbEntity
  8
0
  6
Continuous
 62
     7
370
    15
100
AcDbCircle
 10
-8.3715789032
 20
-14.5
 30
0.0
 40
2.999999999999853
100
AcDbArc
 50
210.0
 51
270.0
  0
ARC
  5
A5
330
1F
100
AcDbEntity
  8
0
  6
Continuous
 62
     7
370
    15
100
AcDbCircle
 10
8.3715789032
 20
-14.5
 30
0.0
 40
3.000000000000003
100
AcDbArc
 50
270.0
 51
330.0
  0
ARC
  5
A6
330
1F
100
AcDbEntity
  8
0
  6
Continuous
 62
     7
370
    15
100
AcDbCircle
 10
15.1554445662
 20
-8.75
 30
0.0
 40
2.0
100
AcDbArc
 50
60.0
 51
240.0
  0
ARC
  5
A7
330
1F
100
AcDbEntity
  8
0
  6
Continuous
 62
     7
370
    15
100
AcDbCircle
 10
16.7431578065
 20
0.0
 30
0.0
 40
3.000000000000069
100
AcDbArc
 50
330.0
 51
30.0
  0
ARC
  5
A8
330
1F
100
AcDbEntity
  8
0
  6
Continuous
 62
     7
370
    15
100
AcDbCircle
 10
15.1554445662
 20
8.75
 30
0.0
 40
1.99999999999994
100
AcDbArc
 50
120.0
 51
300.0
  0
ARC
  5
A9
330
1F
100
AcDbEntity
  8
0
  6
Continuous
 62
     7
370
    15
100
AcDbCircle
 10
8.3715789032
 20
14.5
 30
0.0
 40
2.999999999999995
100
AcDbArc
 50
30.0
 51
90.0
  0
ARC
  5
AA
330
1F
100
AcDbEntity
  8
0
  6
Continuous
 62
     7
370
    15
100
AcDbCircle
 10
-8.3715789032
 20
14.5
 30
0.0
 40
3.000000000000003
100
AcDbArc
 50
90.0
 51
150.0
  0
ARC
  5
AB
330
1F
100
AcDbEntity
  8
0
  6
Continuous
 62
     7
370
    15
100
AcDbCircle
 10
-15.1554445662
 20
8.75
 30
0.0
 40
2.0
100
AcDbArc
 50
240.0
 51
60.0
  0
ARC
  5
AC
330
1F
100
AcDbEntity
  8
0
  6
Continuous
 62
     7
370
    15
100
AcDbCircle
 10
-16.7431578065
 20
0.0
 30
0.0
 40
2.999999999999979
100
AcDbArc
 50
150.0
 51
210.0
  0
ARC
  5
AD
330
1F
100
AcDbEntity
  8
0
  6
Continuous
 62
     7
370
    15
100
AcDbCircle
 10
-15.1554445662
 20
-8.75
 30
0.0
 40
2.000000000000007
100
AcDbArc
 50
300.0
 51
120.0
  0
ARC
  5
AE
330
1F
100
AcDbEntity
  8
0
  6
Continuous
 62
     7
370
    15
100
AcDbCircle
 10
-32.5
 20
32.5
 30
0.0
 40
5.25000000000336
100
AcDbArc
 50
276.5285398462
 51
353.3058353083
  0
ARC
  5
AF
330
1F
100
AcDbEntity
  8
0
  6
Continuous
 62
     7
370
    15
100
AcDbCircle
 10
32.5
 20
-32.5
 30
0.0
 40
5.250000000001484
100
AcDbArc
 50
96.5285398462
 51
173.3058353083
  0
ARC
  5
B0
330
1F
100
AcDbEntity
  8
0
  6
Continuous
 62
     7
370
    15
100
AcDbCircle
 10
-32.5000042481
 20
-32.5000042482
 30
0.0
 40
3.250000000000007
100
AcDbArc
 50
233.849883098
 51
216.1501169018
  0
ARC
  5
B1
330
1F
100
AcDbEntity
  8
0
  6
Continuous
 62
     7
370
    15
100
AcDbCircle
 10
-32.5
 20
-32.5
 30
0.0
 40
5.250000000000007
100
AcDbArc
 50
135.0
 51
219.5349762003
  0
ARC
  5
B2
330
1F
100
AcDbEntity
  8
0
  6
Continuous
 62
     7
370
    15
100
AcDbCircle
 10
-22.5349042733
 20
0.0
 30
0.0
 40
2.999999999999988
100
AcDbArc
 50
151.1494049345
 51
208.8505950655
  0
ARC
  5
B3
330
1F
100
AcDbEntity
  8
0
  6
Continuous
 62
     7
370
    15
100
AcDbCircle
 10
-32.5
 20
32.5
 30
0.0
 40
5.249999999999992
100
AcDbArc
 50
140.4650691456
 51
225.0
  0
ARC
  5
B4
330
1F
100
AcDbEntity
  8
0
  6
Continuous
 62
     7
370
    15
100
AcDbCircle
 10
-32.5
 20
32.5
 30
0.0
 40
3.249999999999998
100
AcDbArc
 50
143.8500100559
 51
126.1501169013
  0
ARC
  5
B5
330
1F
100
AcDbEntity
  8
0
  6
Continuous
 62
     7
370
    15
100
AcDbCircle
 10
-32.5
 20
32.5
 30
0.0
 40
5.250000000000002
100
AcDbArc
 50
45.0
 51
129.5349762
  0
ARC
  5
B6
330
1F
100
AcDbEntity
  8
0
  6
Continuous
 62
     7
370
    15
100
AcDbCircle
 10
32.5
 20
32.5
 30
0.0
 40
5.250000000000007
100
AcDbArc
 50
50.4650237997
 51
135.0
  0
ARC
  5
B7
330
1F
100
AcDbEntity
  8
0
  6
Continuous
 62
     7
370
    15
100
AcDbCircle
 10
32.5
 20
32.5
 30
0.0
 40
3.250000000002177
100
AcDbArc
 50
53.849883098
 51
36.1501169017
  0
ARC
  5
B8
330
1F
100
AcDbEntity
  8
0
  6
Continuous
 62
     7
370
    15
100
AcDbCircle
 10
32.5
 20
32.5
 30
0.0
 40
5.249999999999997
100
AcDbArc
 50
315.0
 51
39.5349762002
  0
ARC
  5
B9
330
1F
100
AcDbEntity
  8
0
  6
Continuous
 62
     7
370
    15
100
AcDbCircle
 10
22.5349042733
 20
0.0
 30
0.0
 40
3.000000000000001
100
AcDbArc
 50
331.1494049345
 51
28.8505950655
  0
ARC
  5
BA
330
1F
100
AcDbEntity
  8
0
  6
Continuous
 62
     7
370
    15
100
AcDbCircle
 10
32.5
 20
-32.5
 30
0.0
 40
3.250000000000022
100
AcDbArc
 50
323.8498830985
 51
306.1501169015
  0
ARC
  5
BB
330
1F
100
AcDbEntity
  8
0
  6
Continuous
 62
     7
370
    15
100
AcDbCircle
 10
32.5
 20
-32.5
 30
0.0
 40
5.249999999999997
100
AcDbArc
 50
225.0
 51
309.5349762001
  0
ARC
  5
BC
330
1F
100
AcDbEntity
  8
0
  6
Continuous
 62
     7
370
    15
100
AcDbCircle
 10
32.5
 20
-32.5
 30
0.0
 40
5.250000000000016
100
AcDbArc
 50
320.4650238
 51
45.0
  0
ARC
  5
BD
330
1F
100
AcDbEntity
  8
0
  6
Continuous
 62
     7
370
    15
100
AcDbCircle
 10
-32.5
 20
-32.5
 30
0.0
 40
5.250000000000024
100
AcDbArc
 50
230.4650237997
 51
315.0
  0
MTEXT
  5
BF
330
1F
100
AcDbEntity
  8
0
  6
Continuous
 62
     7
100
AcDbMText
 10
-37.75
 20
-38.7695663917
 30
0.0
 40
4.83362
 41
0.0
 71
     1
 72
     1
  1
SolidWorks Student Edition.
  7
SLDTEXTSTYLE0
 73
     1
 44
1.0
  0
MTEXT
  5
C0
330
1F
100
AcDbEntity
  8
0
  6
Continuous
 62
     7
100
AcDbMText
 10
-37.75
 20
-46.0199963917
 30
0.0
 40
4.83362
 41
0.0
 71
     1
 72
     1
  1
For Academic Use Only.
  7
SLDTEXTSTYLE0
 73
     1
 44
1.0
  0
ENDSEC
  0
SECTION
  2
OBJECTS
  0
DICTIONARY
  5
C
330
0
100
AcDbDictionary
281
     1
  3
ACAD_GROUP
350
D
  3
ACAD_LAYOUT
350
1A
  3
ACAD_MLINESTYLE
350
17
  3
ACAD_PLOTSETTINGS
350
19
  3
ACAD_PLOTSTYLENAME
350
E
  0
DICTIONARY
  5
D
102
{ACAD_REACTORS
330
C
102
}
330
C
100
AcDbDictionary
281
     1
  0
DICTIONARY
  5
1A
102
{ACAD_REACTORS
330
C
102
}
330
C
100
AcDbDictionary
281
     1
  3
Layout1
350
1E
  3
Layout2
350
26
  3
Model
350
22
  0
DICTIONARY
  5
17
102
{ACAD_REACTORS
330
C
102
}
330
C
100
AcDbDictionary
281
     1
  3
Standard
350
18
  0
DICTIONARY
  5
19
102
{ACAD_REACTORS
330
C
102
}
330
C
100
AcDbDictionary
281
     1
  0
ACDBDICTIONARYWDFLT
  5
E
102
{ACAD_REACTORS
330
C
102
}
330
C
100
AcDbDictionary
281
     1
  3
Normal
350
F
100
AcDbDictionaryWithDefault
340
F
  0
LAYOUT
  5
1E
102
{ACAD_REACTORS
330
1A
102
}
330
1A
100
AcDbPlotSettings
  1

  2
none_device
  4

  6

 40
0.0
 41
0.0
 42
0.0
 43
0.0
 44
0.0
 45
0.0
 46
0.0
 47
0.0
 48
0.0
 49
0.0
140
0.0
141
0.0
142
1.0
143
1.0
 70
   688
 72
     0
 73
     0
 74
     5
  7

 75
    16
147
1.0
148
0.0
149
0.0
100
AcDbLayout
  1
Layout1
 70
     1
 71
     1
 10
0.0
 20
0.0
 11
420.0
 21
297.0
 12
0.0
 22
0.0
 32
0.0
 14
1.0000000000E+20
 24
1.0000000000E+20
 34
1.0000000000E+20
 15
-1.0000000000E+20
 25
-1.0000000000E+20
 35
-1.0000000000E+20
146
0.0
 13
0.0
 23
0.0
 33
0.0
 16
1.0
 26
0.0
 36
0.0
 17
0.0
 27
1.0
 37
0.0
 76
     0
330
1B
  0
LAYOUT
  5
26
102
{ACAD_REACTORS
330
1A
102
}
330
1A
100
AcDbPlotSettings
  1

  2
none_device
  4

  6

 40
0.0
 41
0.0
 42
0.0
 43
0.0
 44
0.0
 45
0.0
 46
0.0
 47
0.0
 48
0.0
 49
0.0
140
0.0
141
0.0
142
1.0
143
1.0
 70
   688
 72
     0
 73
     0
 74
     5
  7

 75
    16
147
1.0
148
0.0
149
0.0
100
AcDbLayout
  1
Layout2
 70
     1
 71
     2
 10
0.0
 20
0.0
 11
0.0
 21
0.0
 12
0.0
 22
0.0
 32
0.0
 14
0.0
 24
0.0
 34
0.0
 15
0.0
 25
0.0
 35
0.0
146
0.0
 13
0.0
 23
0.0
 33
0.0
 16
1.0
 26
0.0
 36
0.0
 17
0.0
 27
1.0
 37
0.0
 76
     0
330
23
  0
LAYOUT
  5
22
102
{ACAD_REACTORS
330
1A
102
}
330
1A
100
AcDbPlotSettings
  1

  2
none_device
  4
ANSI_A_(11.00_x_8.50_Inches)
  6

 40
6.35
 41
19.05
 42
6.35000508
 43
19.05000254
 44
279.4
 45
215.9
 46
133.34999746
 47
88.89999873
 48
0.0
 49
0.0
140
0.0
141
0.0
142
0.1114569536
143
1.0
 70
  1696
 72
     0
 73
     0
 74
     0
  7

 75
     0
147
0.0179189148
148
0.0
149
0.0
100
AcDbLayout
  1
Model
 70
     1
 71
     0
 10
0.0
 20
0.0
 11
420.0
 21
297.0
 12
0.0
 22
0.0
 32
0.0
 14
-37.75
 24
-37.75
 34
0.0
 15
37.75
 25
37.75
 35
0.0
146
0.0
 13
0.0
 23
0.0
 33
0.0
 16
1.0
 26
0.0
 36
0.0
 17
0.0
 27
1.0
 37
0.0
 76
     0
330
1F
331
29
  0
MLINESTYLE
  5
18
102
{ACAD_REACTORS
330
17
102
}
330
17
100
AcDbMlineStyle
  2
Standard
 70
     0
  3

 62
   256
 51
90.0
 52
90.0
 71
     2
 49
0.5
 62
   256
  6
BYLAYER
 49
-0.5
 62
   256
  6
BYLAYER
  0
ACDBPLACEHOLDER
  5
F
102
{ACAD_REACTORS
330
E
102
}
330
E
  0
ENDSEC
  0
EOF
